#!OML:ASF H:\ManfredETheater\Project 1\Capture day 1\Session 1\subject.ASF
:FULLY-SPECIFIED
:DEGREES
97
root 9.87104 13.3827 1.8361 -99.4295 -79.3913 124.168
lowerback 56.1463 -3.96741 -2.68417
upperback 12.7346 -9.40728 -6.07683
thorax -7.56033 -4.78696 -1.23751
lowerneck 3.01364 -9.90063 -13.6802
upperneck -7.87486 -12.9375 20.5037
head -0.422376 -6.93306 8.44666
rclavicle 3.49861e-014 3.20043e-014
rhumerus -42.3466 2.25124 -91.9137
rradius 72.0883
rwrist -8.24627
rhand -29.7463 0.384346
rfingers 7.12502
rthumb -3.07241 -29.5733
lclavicle 3.49861e-014 3.20043e-014
lhumerus -22.9972 34.0039 60.0349
lradius 106.967
lwrist 21.8409
lhand -37.9966 12.3975
lfingers 7.12502
lthumb -11.036 42.0873
rfemur -94.9 -36.6614 30.4112
rtibia 103.286
rfoot -21.248 -3.05722
rtoes -34.2482
lfemur -66.8852 16.2567 4.82048
ltibia 80.7728
lfoot -4.49229 -8.80129
ltoes -11.0916
98
root 9.77281 13.4161 1.42118 -97.1575 -79.9852 121.894
lowerback 55.6099 -3.92539 -2.5682
upperback 12.7817 -9.18815 -5.75547
thorax -7.40878 -4.70945 -1.04537
lowerneck 3.35784 -9.95616 -12.7157
upperneck -7.9331 -12.9896 20.0626
head -0.592533 -6.98222 8.17691
rclavicle -1.74931e-014 -2.24627e-014
rhumerus -42.5834 1.82641 -91.8732
rradius 71.4761
rwrist -9.01799
rhand -29.7787 0.341322
rfingers 7.12502
rthumb -3.1037 -29.6158
lclavicle -1.74931e-014 -2.24627e-014
lhumerus -23.1717 32.196 61.018
lradius 108.385
lwrist 21.6859
lhand -37.8802 12.6141
lfingers 7.12502
lthumb -10.9237 42.3099
rfemur -96.0915 -37.1411 32.4647
rtibia 105.382
rfoot -18.6029 -0.308102
rtoes -34.571
lfemur -69.6733 17.9185 1.9892
ltibia 83.9241
lfoot -6.05679 -7.89105
ltoes -10.4206
99
root 9.67817 13.4377 1.01077 -94.7595 -80.7469 119.625
lowerback 54.9531 -3.98143 -2.42563
upperback 12.8443 -9.07383 -5.5231
thorax -7.25226 -4.67292 -0.916225
lowerneck 3.33416 -9.65357 -13.8481
upperneck -7.33117 -12.6742 20.854
head -0.328307 -6.79673 8.60219
rclavicle -7.4743e-014 -4.63168e-014
rhumerus -42.4351 1.54668 -91.997
rradius 70.4759
rwrist -9.63503
rhand -29.1329 0.313722
rfingers 7.12502
rthumb -2.48002 -29.6516
lclavicle -7.4743e-014 -4.63168e-014
lhumerus -23.4413 30.2252 61.5863
lradius 109.917
lwrist 20.8656
lhand -37.3789 13.3258
lfingers 7.12502
lthumb -10.4401 43.0466
rfemur -97.6152 -37.5213 34.4614
rtibia 107.416
rfoot -14.6913 3.2491
rtoes -33.7392
lfemur -72.8115 19.4486 -0.915326
ltibia 87.191
lfoot -7.75296 -7.3451
ltoes -9.35735
100
root 9.58349 13.448 0.604904 -91.9549 -81.7947 117.076
lowerback 54.1031 -4.16639 -1.99132
upperback 12.9205 -8.93708 -5.24785
thorax -7.08097 -4.62288 -0.882939
lowerneck 3.33956 -9.54217 -13.6677
upperneck -6.96197 -12.5438 21.1095
head -0.239871 -6.73065 8.65046
rclavicle -1.63799e-013 -8.39865e-014
rhumerus -42.0115 1.19742 -92.0221
rradius 69.1276
rwrist -9.86376
rhand -28.1446 0.226391
rfingers 7.12502
rthumb -1.5256 -29.7479
lclavicle -1.63799e-013 -8.39865e-014
lhumerus -23.7186 28.3237 61.9521
lradius 111.585
lwrist 20.6038
lhand -37.0119 13.7902
lfingers 7.12502
lthumb -10.0861 43.5284
rfemur -99.3171 -37.7705 36.4775
rtibia 109.245
rfoot -9.47933 7.20415
rtoes -34.0778
lfemur -76.3278 20.9812 -3.87708
ltibia 90.4472
lfoot -9.51192 -7.72134
ltoes -8.67724
101
root 9.48831 13.453 0.196168 -88.568 -83.019 113.973
lowerback 53.2849 -4.17826 -1.5468
upperback 12.9882 -8.58531 -4.78696
thorax -6.87747 -4.48567 -0.753541
lowerneck 3.44755 -9.57999 -13.3565
upperneck -6.8423 -12.5941 21.2593
head -0.224963 -6.76885 8.64724
rclavicle 1.27222e-014 5.1684e-015
rhumerus -41.3163 0.750136 -91.847
rradius 67.5577
rwrist -10.1961
rhand -26.9239 0.173575
rfingers 7.12502
rthumb -0.346618 -29.8059
lclavicle 1.27222e-014 5.1684e-015
lhumerus -23.6385 26.1466 62.6604
lradius 113.211
lwrist 19.9744
lhand -37.0211 13.8109
lfingers 7.12502
lthumb -10.095 43.5488
rfemur -100.674 -37.8327 38.1251
rtibia 110.611
rfoot -3.02604 11.4034
rtoes -28.4364
lfemur -79.9737 22.3323 -6.87618
ltibia 93.5819
lfoot -10.9276 -8.89788
ltoes -9.05753
102
root 9.38937 13.4774 -0.21953 -83.5251 -84.4299 108.863
lowerback 53.0864 -3.79711 -0.78919
upperback 13.0193 -7.63898 -4.04547
thorax -6.74178 -4.08794 -0.710163
lowerneck 3.76979 -10.1298 -11.9731
upperneck -7.10233 -13.247 20.9664
head -0.361955 -7.14272 8.32093
rclavicle 3.18055e-015 5.76476e-015
rhumerus -40.3608 -0.959723 -91.1762
rradius 65.8
rwrist -10.587
rhand -25.7532 0.105363
rfingers 7.12502
rthumb 0.784074 -29.8729
lclavicle 3.18055e-015 5.76476e-015
lhumerus -22.592 22.6496 64.2413
lradius 114.837
lwrist 19.4287
lhand -35.7486 13.4207
lfingers 7.12502
lthumb -8.86723 43.2143
rfemur -101.126 -38.1076 38.9032
rtibia 111.715
rfoot 3.74355 15.2548
rtoes -18.5589
lfemur -83.206 23.6048 -9.93097
ltibia 96.3711
lfoot -11.9833 -11.2127
ltoes -9.58111
103
root 9.28555 13.4895 -0.635866 -74.6658 -85.7965 99.8535
lowerback 53.0714 -4.17683 -0.16218
upperback 12.8983 -7.66729 -3.64045
thorax -6.86037 -4.10189 -0.539282
lowerneck 3.65553 -9.9977 -11.5895
upperneck -6.92882 -13.0693 20.7298
head -0.370214 -7.04339 8.18349
rclavicle -7.79236e-014 -7.7526e-015
rhumerus -39.4173 -0.557029 -91.0523
rradius 63.8317
rwrist -11.4139
rhand -24.5748 -0.027982
rfingers 7.12502
rthumb 1.92225 -29.9991
lclavicle -7.79236e-014 -7.7526e-015
lhumerus -22.7988 20.6299 64.5504
lradius 116.497
lwrist 18.1951
lhand -35.0092 13.1318
lfingers 7.12502
lthumb -8.15365 42.9545
rfemur -101.169 -38.47 39.4804
rtibia 112.673
rfoot 7.36463 18.7993
rtoes -14.4382
lfemur -86.2006 24.293 -12.8449
ltibia 98.8822
lfoot -12.8107 -13.7767
ltoes -11.2451
